<svg width="20" height="20" viewBox="0 0 20 20" fill="none" xmlns="http://www.w3.org/2000/svg">
<path d="M10 13.6667V18.25M10 18.25H15.5M10 18.25H4.5M4.68333 13.6667H15.3167C16.3434 13.6667 16.8568 13.6667 17.249 13.4668C17.5939 13.2911 17.8744 13.0106 18.0502 12.6656C18.25 12.2735 18.25 11.7601 18.25 10.7333V4.68333C18.25 3.65657 18.25 3.14319 18.0502 2.75102C17.8744 2.40605 17.5939 2.12559 17.249 1.94982C16.8568 1.75 16.3434 1.75 15.3167 1.75H4.68333C3.65657 1.75 3.14319 1.75 2.75102 1.94982C2.40605 2.12559 2.12559 2.40605 1.94982 2.75102C1.75 3.14319 1.75 3.65657 1.75 4.68333V10.7333C1.75 11.7601 1.75 12.2735 1.94982 12.6656C2.12559 13.0106 2.40605 13.2911 2.75102 13.4668C3.14319 13.6667 3.65657 13.6667 4.68333 13.6667Z" stroke="#004146" stroke-width="1.67" stroke-linecap="round"/>
</svg>
