<svg width="19" height="18" viewBox="0 0 19 18" fill="none" xmlns="http://www.w3.org/2000/svg">
<path d="M5.9 16.5L5.9 15.85L5.9 15.85L5.9 16.5ZM13.1 16.5L13.1 17.15L13.1 17.15L13.1 16.5ZM15.5 14.1L14.85 14.1L14.85 14.1L15.5 14.1ZM15.5 3.9L16.15 3.9L16.15 3.9L15.5 3.9ZM15.3365 2.31901L15.9157 2.02392L15.9157 2.02392L15.3365 2.31901ZM13.1 1.5L13.1 0.85L13.1 1.5ZM14.681 1.66349L14.9761 1.08434L14.9761 1.08434L14.681 1.66349ZM14.681 16.3365L14.9761 16.9157L14.9761 16.9157L14.681 16.3365ZM15.3365 15.681L14.7574 15.3859L14.7574 15.3859L15.3365 15.681ZM4.31902 16.3365L4.61411 15.7574L4.61411 15.7574L4.31902 16.3365ZM3.5 14.1L2.85 14.1L3.5 14.1ZM3.66349 15.681L4.24265 15.3859L4.24265 15.3859L3.66349 15.681ZM4.15 6C4.15 5.64102 3.85899 5.35 3.5 5.35C3.14101 5.35 2.85 5.64102 2.85 6L4.15 6ZM8 0.85C7.64101 0.850001 7.35 1.14102 7.35 1.5C7.35 1.85899 7.64101 2.15 8 2.15L8 0.85ZM3.62803 5.87197L3.16841 5.41235L3.62803 5.87197ZM7.87197 1.62803L8.33159 2.08765L7.87197 1.62803ZM3.68107 6L3.68107 6.65L3.68107 6ZM7.25 6L7.25 5.35L7.25 6ZM8 5.25L7.35 5.25L7.35 5.25L8 5.25ZM8 1.68107L8.65 1.68107L8.65 1.68107L8 1.68107ZM6.5 8.35C6.14102 8.35 5.85 8.64102 5.85 9C5.85 9.35899 6.14102 9.65 6.5 9.65V8.35ZM12.5 9.65C12.859 9.65 13.15 9.35899 13.15 9C13.15 8.64102 12.859 8.35 12.5 8.35V9.65ZM11 5.35C10.641 5.35 10.35 5.64102 10.35 6C10.35 6.35899 10.641 6.65 11 6.65V5.35ZM12.5 6.65C12.859 6.65 13.15 6.35899 13.15 6C13.15 5.64102 12.859 5.35 12.5 5.35V6.65ZM6.5 11.35C6.14102 11.35 5.85 11.641 5.85 12C5.85 12.359 6.14102 12.65 6.5 12.65V11.35ZM12.5 12.65C12.859 12.65 13.15 12.359 13.15 12C13.15 11.641 12.859 11.35 12.5 11.35V12.65ZM5.9 17.15H13.1V15.85H5.9V17.15ZM16.15 14.1V3.9H14.85V14.1H16.15ZM16.15 3.9C16.15 3.49069 16.1505 3.14461 16.1274 2.86187C16.1037 2.57155 16.0519 2.29126 15.9157 2.02392L14.7574 2.61411C14.7846 2.66764 14.8146 2.7578 14.8317 2.96773C14.8495 3.18525 14.85 3.46924 14.85 3.9L16.15 3.9ZM13.1 2.15C13.5308 2.15 13.8147 2.15051 14.0323 2.16828C14.2422 2.18543 14.3324 2.21537 14.3859 2.24264L14.9761 1.08434C14.7087 0.94812 14.4285 0.896315 14.1381 0.872595C13.8554 0.849494 13.5093 0.85 13.1 0.85L13.1 2.15ZM15.9157 2.02392C15.7095 1.61937 15.3806 1.29046 14.9761 1.08434L14.3859 2.24264C14.5458 2.32414 14.6759 2.45417 14.7574 2.61411L15.9157 2.02392ZM13.1 17.15C13.5093 17.15 13.8554 17.1505 14.1381 17.1274C14.4285 17.1037 14.7087 17.0519 14.9761 16.9157L14.3859 15.7574C14.3324 15.7846 14.2422 15.8146 14.0323 15.8317C13.8147 15.8495 13.5308 15.85 13.1 15.85L13.1 17.15ZM14.85 14.1C14.85 14.5308 14.8495 14.8147 14.8317 15.0323C14.8146 15.2422 14.7846 15.3324 14.7574 15.3859L15.9157 15.9761C16.0519 15.7087 16.1037 15.4285 16.1274 15.1381C16.1505 14.8554 16.15 14.5093 16.15 14.1L14.85 14.1ZM14.9761 16.9157C15.3806 16.7095 15.7095 16.3806 15.9157 15.9761L14.7574 15.3859C14.6759 15.5458 14.5458 15.6759 14.3859 15.7574L14.9761 16.9157ZM5.9 15.85C5.46924 15.85 5.18525 15.8495 4.96773 15.8317C4.7578 15.8146 4.66764 15.7846 4.61411 15.7574L4.02392 16.9157C4.29126 17.0519 4.57155 17.1037 4.86187 17.1274C5.14461 17.1505 5.49069 17.15 5.9 17.15L5.9 15.85ZM2.85 14.1C2.85 14.5093 2.8495 14.8554 2.8726 15.1381C2.89632 15.4285 2.94812 15.7087 3.08434 15.9761L4.24265 15.3859C4.21537 15.3324 4.18543 15.2422 4.16828 15.0323C4.15051 14.8147 4.15 14.5308 4.15 14.1L2.85 14.1ZM4.61411 15.7574C4.45417 15.6759 4.32414 15.5458 4.24265 15.3859L3.08434 15.9761C3.29046 16.3806 3.61937 16.7095 4.02392 16.9157L4.61411 15.7574ZM2.85 6L2.85 14.1L4.15 14.1L4.15 6L2.85 6ZM13.1 0.85L8 0.85L8 2.15L13.1 2.15L13.1 0.85ZM4.08765 6.33159L8.33159 2.08765L7.41235 1.16841L3.16841 5.41235L4.08765 6.33159ZM3.68107 6.65L7.25 6.65L7.25 5.35L3.68107 5.35L3.68107 6.65ZM8.65 5.25V1.68107H7.35V5.25H8.65ZM7.25 6.65C8.0232 6.65 8.65 6.0232 8.65 5.25L7.35 5.25C7.35 5.30523 7.30523 5.35 7.25 5.35L7.25 6.65ZM8.33159 2.08765C7.96936 2.44988 7.35 2.19334 7.35 1.68107L8.65 1.68107C8.65 1.03516 7.86907 0.711692 7.41235 1.16841L8.33159 2.08765ZM3.16841 5.41235C2.71169 5.86907 3.03516 6.65 3.68107 6.65L3.68107 5.35C4.19334 5.35 4.44988 5.96936 4.08765 6.33159L3.16841 5.41235ZM6.5 9.65H12.5V8.35H6.5V9.65ZM11 6.65H12.5V5.35H11V6.65ZM6.5 12.65H12.5V11.35H6.5V12.65Z" fill="#252525"/>
</svg>
