<svg width="19" height="18" viewBox="0 0 19 18" fill="none" xmlns="http://www.w3.org/2000/svg">
<path d="M2.68212 9.87882C2.42595 9.32148 2.42595 8.67852 2.68212 8.12118C3.86795 5.54132 6.47494 3.75 9.50032 3.75C12.5257 3.75 15.1327 5.54132 16.3185 8.12118C16.5747 8.67852 16.5747 9.32149 16.3185 9.87882C15.1327 12.4587 12.5257 14.25 9.50032 14.25C6.47494 14.25 3.86795 12.4587 2.68212 9.87882Z" stroke="#252525" stroke-width="1.3"/>
<path d="M11.7503 9C11.7503 10.2426 10.743 11.25 9.50032 11.25C8.25768 11.25 7.25032 10.2426 7.25032 9C7.25032 7.75736 8.25768 6.75 9.50032 6.75C10.743 6.75 11.7503 7.75736 11.7503 9Z" stroke="#252525" stroke-width="1.3"/>
</svg>
