<svg width="16" height="16" viewBox="0 0 16 16" fill="none" xmlns="http://www.w3.org/2000/svg">
<path d="M8.74992 8.66634C8.74992 8.25213 8.41413 7.91634 7.99992 7.91634C7.58571 7.91634 7.24992 8.25213 7.24992 8.66634L8.74992 8.66634ZM7.24992 13.9997C7.24992 14.4139 7.58571 14.7497 7.99992 14.7497C8.41413 14.7497 8.74992 14.4139 8.74992 13.9997L7.24992 13.9997ZM5.46959 9.46934C5.1767 9.76224 5.1767 10.2371 5.46959 10.53C5.76248 10.8229 6.23736 10.8229 6.53025 10.53L5.46959 9.46934ZM8.75417 8.75392L9.2845 8.22359L9.28449 8.22359L8.75417 8.75392ZM9.46959 10.53C9.76248 10.8229 10.2374 10.8229 10.5302 10.53C10.8231 10.2371 10.8231 9.76224 10.5302 9.46935L9.46959 10.53ZM7.79391 8.30845L8.02567 9.02174L8.02567 9.02174L7.79391 8.30845ZM8.20593 8.30845L7.97417 9.02174L8.20593 8.30845ZM11.9957 4.73216L12.1439 3.99695L12.1439 3.99695L11.9957 4.73216ZM4.7324 4.00393L3.9972 3.85569L3.9972 3.85569L4.7324 4.00393ZM11.2674 4.00393L10.5322 4.15217L10.5322 4.15217L11.2674 4.00393ZM4.00418 4.73216L3.85594 3.99695L3.85594 3.99695L4.00418 4.73216ZM12.3663 10.3684C11.9867 10.5342 11.8135 10.9764 11.9793 11.3559C12.1452 11.7355 12.5873 11.9087 12.9669 11.7429L12.3663 10.3684ZM3.03297 11.7429C3.41254 11.9087 3.85468 11.7355 4.02052 11.3559C4.18636 10.9764 4.0131 10.5342 3.63353 10.3684L3.03297 11.7429ZM7.24992 8.66634L7.24992 13.9997L8.74992 13.9997L8.74992 8.66634L7.24992 8.66634ZM6.53025 10.53L7.776 9.28425L6.71534 8.22359L5.46959 9.46934L6.53025 10.53ZM8.22384 9.28425L9.46959 10.53L10.5302 9.46935L9.2845 8.22359L8.22384 9.28425ZM7.776 9.28425C7.91676 9.1435 7.99084 9.07024 8.04709 9.02248C8.09665 8.98041 8.08122 9.00369 8.02567 9.02174L7.56214 7.59515C7.35437 7.66266 7.19683 7.77667 7.07633 7.87897C6.96252 7.97559 6.83859 8.10034 6.71534 8.22359L7.776 9.28425ZM9.28449 8.22359C9.16124 8.10034 9.03732 7.97559 8.92351 7.87897C8.803 7.77667 8.64547 7.66266 8.43769 7.59515L7.97417 9.02174C7.91861 9.00369 7.90319 8.98041 7.95274 9.02248C8.009 9.07024 8.08308 9.1435 8.22384 9.28425L9.28449 8.22359ZM8.02567 9.02174C8.00893 9.02718 7.9909 9.02718 7.97417 9.02174L8.43769 7.59515C8.15316 7.50271 7.84667 7.50271 7.56214 7.59515L8.02567 9.02174ZM11.8474 5.46736C13.0279 5.70538 13.9166 6.74958 13.9166 7.99967H15.4166C15.4166 6.02148 14.0107 4.37334 12.1439 3.99695L11.8474 5.46736ZM5.46761 4.15217C5.70562 2.97169 6.74983 2.08301 7.99992 2.08301V0.583008C6.02173 0.583008 4.37358 1.98894 3.9972 3.85569L5.46761 4.15217ZM7.99992 2.08301C9.25001 2.08301 10.2942 2.97169 10.5322 4.15217L12.0026 3.85569C11.6263 1.98894 9.97811 0.583008 7.99992 0.583008V2.08301ZM2.08325 7.99967C2.08325 6.74958 2.97194 5.70538 4.15241 5.46736L3.85594 3.99695C1.98919 4.37334 0.583252 6.02148 0.583252 7.99967H2.08325ZM13.9166 7.99967C13.9166 9.05784 13.2803 9.96906 12.3663 10.3684L12.9669 11.7429C14.4075 11.1135 15.4166 9.67527 15.4166 7.99967H13.9166ZM3.63353 10.3684C2.71958 9.96906 2.08325 9.05784 2.08325 7.99967H0.583252C0.583252 9.67527 1.59239 11.1135 3.03297 11.7429L3.63353 10.3684ZM3.9972 3.85569C3.9841 3.92065 3.9209 3.98386 3.85594 3.99695L4.15241 5.46736C4.80931 5.33492 5.33516 4.80906 5.46761 4.15217L3.9972 3.85569ZM12.1439 3.99695C12.0789 3.98386 12.0157 3.92065 12.0026 3.85569L10.5322 4.15217C10.6647 4.80906 11.1905 5.33492 11.8474 5.46736L12.1439 3.99695Z" fill="#252525"/>
</svg>
