<svg width="56" height="56" viewBox="0 0 56 56" fill="none" xmlns="http://www.w3.org/2000/svg">
<mask id="mask0_2997_37922" style="mask-type:luminance" maskUnits="userSpaceOnUse" x="0" y="0" width="56" height="56">
<path d="M0 0H56V56H0V0Z" fill="white"/>
</mask>
<g mask="url(#mask0_2997_37922)">
<mask id="mask1_2997_37922" style="mask-type:luminance" maskUnits="userSpaceOnUse" x="-1" y="-1" width="58" height="58">
<path fill-rule="evenodd" clip-rule="evenodd" d="M32.8929 -0.0707246C35.9856 -0.0707246 38.7898 1.19537 40.8304 3.22691C42.8711 5.26753 44.1281 8.06998 44.1281 11.1627H44.1172V11.8719H44.8264C47.9191 11.8719 50.7324 13.1398 52.7622 15.1695C54.8046 17.2101 56.0598 20.0144 56.0598 23.1071C56.0598 26.1798 54.8046 29.0784 52.6025 31.1952C50.5819 33.1397 47.8338 34.3423 44.8264 34.3423H34.3422V44.8247C34.3422 47.9174 33.0761 50.7216 31.0445 52.7622C30.9811 52.8257 30.9158 52.891 30.8414 52.9545C31.4962 53.1159 32.1837 53.2139 32.882 53.2139C35.1911 53.2139 37.2861 52.2689 38.8007 50.7434C40.3262 49.2179 41.2712 47.1229 41.2712 44.8247H41.2821V41.2695H44.8264C47.1355 41.2695 49.2287 40.3244 50.7433 38.799C52.0656 37.4785 52.9563 35.7172 53.1612 33.7618C54.2242 32.9129 55.1365 31.8826 55.8349 30.7C55.9746 31.3983 56.0489 32.1402 56.0489 32.8712C56.0489 35.9639 54.7828 38.7663 52.7531 40.8069C50.7107 42.8476 47.9082 44.1046 44.8155 44.1046H44.1063V44.8029H44.1172C44.1172 47.8974 42.8493 50.6999 40.8196 52.7405C38.7789 54.7811 35.9747 56.0381 32.882 56.0381C31.1316 56.0381 29.4665 55.63 27.9954 54.9099C26.5552 54.2115 25.2891 53.2139 24.257 51.9895C22.6245 50.0342 21.6468 47.531 21.6468 44.8029V34.3205H11.1644C8.07172 34.3205 5.26746 33.0526 3.22684 31.0229C3.16335 30.9594 3.09805 30.8941 3.03457 30.8197C2.87313 31.4745 2.77518 32.162 2.77518 32.8603H2.7643C2.7643 35.1585 3.71115 37.2626 5.23481 38.7772C6.76028 40.3027 8.85532 41.2477 11.1535 41.2477H14.7087V44.8029C14.7087 47.112 15.6538 49.207 17.1792 50.7216C18.4997 52.0421 20.261 52.9346 22.2164 53.1377C23.0653 54.2006 24.0956 55.1148 25.2782 55.8132C24.2461 56.0163 23.1941 56.0816 22.142 55.9837C19.4339 55.7479 16.9851 54.5453 15.1604 52.7296C13.1198 50.689 11.8627 47.8865 11.8627 44.792V44.0937H11.1535C8.06084 44.0937 5.25657 42.8276 3.21596 40.7961C1.18622 38.7663 -0.0816823 35.953 -0.0816823 32.8603H-0.0925656C-0.0925656 29.53 1.49821 26.2433 4.05397 24.1591C5.98757 22.581 8.45808 21.6251 11.1426 21.6251H21.6251V11.1427C21.6251 8.04821 22.893 5.24577 24.9227 3.20515C24.988 3.13985 25.0624 3.06548 25.1277 3.00018C24.4728 2.82786 23.7854 2.74261 23.0762 2.74261V2.75349C20.7671 2.75349 18.6721 3.69852 17.1575 5.21312C15.632 6.73859 14.687 8.83181 14.687 11.1318V14.687H11.1317C8.82267 14.687 6.72763 15.6321 5.21486 17.1467C3.88165 18.478 3.00192 20.2393 2.78607 22.1838C1.72313 23.0327 0.810748 24.063 0.112403 25.2329C-0.0707989 24.3532 -0.156052 23.4499 -0.070799 22.3017C0.123287 19.5083 1.33677 16.9961 3.19419 15.126C5.23481 13.0854 8.03907 11.8302 11.1317 11.8302H11.841V11.1209C11.841 8.02645 13.1089 5.21312 15.1386 3.18338C17.1792 1.14276 19.9817 -0.114258 23.0762 -0.114258V-0.103375C26.1797 -0.103375 29.2833 1.28243 31.3674 3.56974C33.194 5.56682 34.3114 8.23142 34.3114 11.1318V21.6142H44.7938C47.8865 21.6142 50.6907 22.8821 52.7313 24.9119C52.7948 24.9754 52.8601 25.0407 52.9236 25.115C53.085 24.4602 53.1812 23.7728 53.1812 23.0744C53.1812 20.7653 52.2361 18.6703 50.7215 17.1575C49.1979 15.6321 47.1029 14.6979 44.8047 14.6979H41.2603V11.1427H41.2495C41.2495 8.83181 40.3044 6.73859 38.7789 5.224C37.4584 3.90349 35.6953 3.01106 33.7309 2.80791C32.882 1.74316 31.8517 0.830775 30.6691 0.13243L30.6165 0.143314C31.3348 -0.00723884 32.0766 -0.0816079 32.8385 -0.0816079L32.8929 -0.0707246ZM53.1812 53.1812C51.7754 54.5888 49.4972 54.5888 48.0914 53.1812C46.6838 51.7737 46.6838 49.4972 48.0914 48.0897C49.4972 46.6821 51.7754 46.6821 53.1812 48.0897C54.5887 49.4972 54.5887 51.7737 53.1812 53.1812ZM53.1812 2.81879C54.5887 4.22455 54.5887 6.50279 53.1812 7.90855C51.7754 9.31612 49.4972 9.31612 48.0914 7.90855C46.6838 6.50279 46.6838 4.22455 48.0914 2.81879C49.4972 1.41122 51.7754 1.41122 53.1812 2.81879ZM2.81872 2.81879C4.22629 1.41122 6.50271 1.41122 7.91029 2.81879C9.31786 4.22455 9.31786 6.50279 7.91029 7.90855C6.50271 9.31612 4.22629 9.31612 2.81872 7.90855C1.41114 6.50279 1.41114 4.22455 2.81872 2.81879ZM2.81872 53.1812C1.41114 51.7737 1.41114 49.4972 2.81872 48.0897C4.22629 46.6821 6.50271 46.6821 7.91029 48.0897C9.31786 49.4972 9.31786 51.7737 7.91029 53.1812C6.50271 54.5888 4.22629 54.5888 2.81872 53.1812ZM28.0063 51.634C28.3709 51.3655 28.7155 51.0753 29.0366 50.7543C30.5621 49.2288 31.5071 47.1338 31.5071 44.8356V31.5072H44.8355C47.1464 31.5072 49.2396 30.5603 50.7542 29.0367C51.0771 28.7138 51.3673 28.3691 51.6357 28.0046C51.3673 27.64 51.0771 27.2953 50.7542 26.9743C49.2287 25.4488 47.1355 24.5038 44.8355 24.5038H31.5071V11.1735C31.5071 8.86446 30.5621 6.77124 29.0366 5.25665C28.7155 4.93378 28.3709 4.64356 28.0063 4.3751C27.6399 4.64356 27.2971 4.93378 26.9742 5.25665C25.4487 6.78212 24.5037 8.87535 24.5037 11.1735V24.5038H11.1753C8.8662 24.5038 6.77117 25.4488 5.25657 26.9743C4.93552 27.2953 4.6453 27.64 4.37684 28.0046C4.6453 28.3691 4.93552 28.7138 5.25657 29.0367C6.78205 30.5603 8.87708 31.5072 11.1753 31.5072H24.5037V44.8356C24.5037 47.1446 25.4487 49.2397 26.9742 50.7543C27.2971 51.0753 27.6399 51.3655 28.0063 51.634Z" fill="white"/>
</mask>
<g mask="url(#mask1_2997_37922)">
<path d="M56 56V0H0V56H56Z" fill="#05CC7E"/>
</g>
</g>
</svg>
