<svg width="19" height="18" viewBox="0 0 19 18" fill="none" xmlns="http://www.w3.org/2000/svg">
<path d="M14.6694 13.5268L15.3194 13.5326L15.3194 13.5326L14.6694 13.5268ZM3.5 3.85C3.14101 3.85 2.85 4.14101 2.85 4.5C2.85 4.85899 3.14101 5.15 3.5 5.15V3.85ZM15.5 5.15C15.859 5.15 16.15 4.85899 16.15 4.5C16.15 4.14101 15.859 3.85 15.5 3.85V5.15ZM8.65 7.5C8.65 7.14101 8.35899 6.85 8 6.85C7.64101 6.85 7.35 7.14101 7.35 7.5H8.65ZM7.35 13.5C7.35 13.859 7.64101 14.15 8 14.15C8.35899 14.15 8.65 13.859 8.65 13.5H7.35ZM11.65 7.5C11.65 7.14101 11.359 6.85 11 6.85C10.641 6.85 10.35 7.14101 10.35 7.5H11.65ZM10.35 13.5C10.35 13.859 10.641 14.15 11 14.15C11.359 14.15 11.65 13.859 11.65 13.5H10.35ZM14.1 4.4942L14.0194 13.521L15.3194 13.5326L15.4 4.5058L14.1 4.4942ZM11.6695 15.85H7.25V17.15H11.6695V15.85ZM3.6 4.5V13.5H4.9V4.5H3.6ZM3.5 5.15H4.25V3.85H3.5V5.15ZM4.25 5.15H6.5V3.85H4.25V5.15ZM6.5 5.15H12.5V3.85H6.5V5.15ZM12.5 5.15H14.75V3.85H12.5V5.15ZM14.75 5.15H15.5V3.85H14.75V5.15ZM7.15 4.16667C7.15 3.12275 8.12804 2.15 9.5 2.15V0.85C7.55825 0.85 5.85 2.26506 5.85 4.16667H7.15ZM9.5 2.15C10.872 2.15 11.85 3.12275 11.85 4.16667H13.15C13.15 2.26506 11.4418 0.85 9.5 0.85V2.15ZM5.85 4.16667V4.5H7.15V4.16667H5.85ZM11.85 4.16667V4.5H13.15V4.16667H11.85ZM7.25 15.85C5.95213 15.85 4.9 14.7979 4.9 13.5H3.6C3.6 15.5158 5.23416 17.15 7.25 17.15V15.85ZM14.0194 13.521C14.0079 14.8106 12.9592 15.85 11.6695 15.85V17.15C13.6726 17.15 15.3015 15.5356 15.3194 13.5326L14.0194 13.521ZM7.35 7.5V13.5H8.65V7.5H7.35ZM10.35 7.5V13.5H11.65V7.5H10.35Z" fill="#E33B32"/>
</svg>
